<svg version="1.2" xmlns="http://www.w3.org/2000/svg" viewBox="0 0 149 34" width="149" height="34">
	<style>
		tspan { white-space:pre } 
		.s0 { fill: #ffffff } 
		.t1 { font-size: 7px;line-height: 7px;fill: #ffffff;font-weight: 500;font-family: "Mplus1p" } 
		.t2 { font-size: 6px;line-height: 7px;fill: #ffffff;font-weight: 500;font-family: "Mplus1p" } 
		.t3 { font-size: 4px;line-height: 8px;fill: #ffffff;font-weight: 300;font-family: "Mplus1p" } 
		.s4 { fill: #000000 } 
	</style>
	<g id="图层 1">
		<g id="&lt;Group&gt;">
			<path id="&lt;Path&gt;" class="s0" d="m736.58 93.02l-6.16 13.28q-0.02 0.02-0.02-0.01v-3.87c0-5.43-4.45-9.79-9.86-9.41-4.78 0.34-8.55 4.57-8.55 9.43 0 2.55-2 4.75-4.55 4.79-2.58 0.04-4.69-2.05-4.69-4.63v-5q0-0.01 0.01-0.01c2.5 0 4.53-2.03 4.53-4.53v-0.04q0-0.01-0.01-0.01h-4.52q-0.01 0-0.01-0.01v-0.24c0-2.52-2.05-4.56-4.57-4.56q-0.01 0-0.01 0.01v4.79q0 0.01-0.02 0.01h-2.8-4.57q-0.01 0-0.01 0.01v4.57 5.02c0 2.58-2.11 4.66-4.7 4.62-2.55-0.04-4.55-2.23-4.55-4.78v-4.87c0-2.53-2.04-4.57-4.57-4.57q-0.01 0-0.01 0.01v9.59c0 2.58-2.11 4.66-4.7 4.62-2.55-0.04-4.55-2.23-4.55-4.79v-4.87c0-2.52-2.04-4.56-4.56-4.56q-0.01 0-0.01 0.01v9.37c0 5.16 4.22 9.53 9.38 9.42 2.68-0.05 5.07-1.26 6.72-3.13q0.01-0.01 0.02 0c1.69 1.92 4.15 3.13 6.9 3.13 5.08 0 9.2-4.12 9.2-9.2h0.01v-5.01q0-0.01 0.01-0.01h2.79q0.02 0 0.02 0.01v4.77c0 5.43 4.44 9.8 9.86 9.41 4.77-0.33 8.54-4.31 8.54-9.18 0-2.55 2-4.99 4.55-5.03 2.59-0.04 4.7 2.04 4.7 4.62v5.01c0 2.53 2.05 4.58 4.58 4.58v0.01c1.54-0.01 2.95-0.91 3.6-2.32l5.51-11.89c0.99-2.13-0.57-4.57-2.92-4.57q-0.01 0-0.01 0.01z"/>
			<g id="&lt;Group&gt;">
				<text id="Hidenori Watanave 
Laboratory 
" style="transform: matrix(1,0,0,1,746.905,97.573)" >
					<tspan x="0" y="0" class="t1">Hidenori Watanave 
</tspan>
					<tspan x="0" y="7.3" class="t2">Laboratory</tspan><tspan  y="7.3" class="t1"> 
</tspan>
				</text>
				<text id="渡邉英徳研究室
" style="transform: matrix(1,0,0,1,747.074,111.021)" >
					<tspan x="0" y="0" class="t3" dx="0 0 0 0 0 0 0 0" >渡邉英徳研究室
</tspan>
				</text>
			</g>
		</g>
		<g id="&lt;Group&gt;">
			<g id="&lt;Group&gt;">
			</g>
			<g id="&lt;Group&gt;">
			</g>
			<g id="&lt;Group&gt;">
			</g>
		</g>
		<g id="&lt;Group&gt;">
			<g id="&lt;Group&gt;">
			</g>
			<g id="&lt;Group&gt;">
			</g>
			<g id="&lt;Group&gt;">
			</g>
		</g>
		<g id="&lt;Group&gt;">
			<g id="&lt;Group&gt;">
				<path id="&lt;Path&gt;" class="s4" d="m80.58 9.11l-6.15 13.29q-0.02 0.01-0.03-0.01v-3.87c0-5.43-4.45-9.8-9.86-9.41-4.78 0.33-8.55 4.56-8.55 9.42 0 2.56-1.99 4.75-4.54 4.79-2.59 0.04-4.7-2.04-4.7-4.62v-5q0-0.01 0.01-0.01c2.51 0 4.53-2.03 4.53-4.53v-0.04q0-0.01-0.01-0.01h-4.52q-0.01-0.01-0.01-0.02v-0.23c0-2.52-2.04-4.57-4.57-4.57q-0.01 0-0.01 0.02v4.78q0 0.01-0.01 0.02h-2.81-4.57q-0.01 0-0.01 0.01v4.57 5.02c0 2.58-2.11 4.66-4.7 4.62-2.55-0.04-4.55-2.24-4.55-4.79v-4.87c0-2.52-2.04-4.56-4.56-4.56q-0.01 0-0.02 0.01v9.59c0 2.58-2.11 4.66-4.69 4.62-2.56-0.04-4.55-2.24-4.55-4.79v-4.87c0-2.52-2.05-4.56-4.57-4.56q-0.01 0-0.01 0.01v9.37c0 5.16 4.22 9.52 9.39 9.42 2.68-0.06 5.07-1.26 6.71-3.13q0.01-0.01 0.02 0c1.69 1.91 4.15 3.13 6.91 3.13 5.08 0 9.2-4.12 9.2-9.2v-5.01q0-0.01 0.01-0.01h2.8q0.01 0 0.01 0.01v4.77c0 5.43 4.44 9.79 9.86 9.41 4.78-0.34 8.54-4.32 8.54-9.18 0-2.55 2-5 4.55-5.04 2.59-0.04 4.7 2.05 4.7 4.63v5c0 2.53 2.05 4.58 4.58 4.58v0.01c1.55 0 2.95-0.91 3.6-2.31l5.51-11.89c0.99-2.14-0.57-4.58-2.92-4.58q-0.01 0-0.01 0.01z"/>
			</g>
			<g id="&lt;Group&gt;">
				<g id="&lt;Group&gt;">
					<path id="&lt;Compound Path&gt;" class="s4" d="m91.95 8.71v2.03h1.84v-2.03h0.59v4.96h-0.59v-2.35h-1.84v2.35h-0.6v-4.96z"/>
					<path id="&lt;Compound Path&gt;" class="s4" d="m95.41 9.32v-0.74h0.57v0.74zm0 4.35v-3.53h0.58v3.53z"/>
					<path id="&lt;Compound Path&gt;" fill-rule="evenodd" class="s4" d="m99.33 8.58v5.09h-0.51l-0.01-0.51h-0.01q-0.31 0.58-0.88 0.58-0.51 0-0.82-0.47-0.31-0.48-0.31-1.37 0-0.9 0.3-1.36 0.3-0.47 0.83-0.47 0.55 0 0.86 0.54h0.01v-2.03zm-2.01 3.32q0 0.63 0.2 0.96 0.2 0.33 0.54 0.33 0.32 0 0.52-0.33 0.21-0.33 0.21-0.92v-0.07q0-0.58-0.21-0.92-0.2-0.34-0.52-0.34-0.35 0-0.55 0.33-0.19 0.32-0.19 0.96z"/>
					<path id="&lt;Compound Path&gt;" fill-rule="evenodd" class="s4" d="m100.5 12.18q0.02 0.47 0.26 0.75 0.25 0.28 0.62 0.28 0.41 0 0.82-0.26l0.13 0.52q-0.47 0.27-1 0.27-0.61 0-0.99-0.5-0.39-0.5-0.39-1.34 0-0.85 0.36-1.34 0.36-0.49 0.97-0.49 0.6 0 0.93 0.46 0.34 0.46 0.34 1.34 0 0.1-0.01 0.31zm0-0.53h1.52q-0.01-0.51-0.21-0.78-0.19-0.27-0.54-0.27-0.35 0-0.55 0.28-0.21 0.27-0.22 0.77z"/>
					<path id="&lt;Compound Path&gt;" class="s4" d="m103.68 10.14l0.01 0.51h0.01q0.17-0.27 0.42-0.43 0.24-0.15 0.51-0.15 0.92 0 0.92 1.56v2.04h-0.53v-1.97q0-0.62-0.13-0.84-0.13-0.23-0.45-0.23-0.28 0-0.51 0.34-0.22 0.34-0.22 0.8v1.9h-0.55v-3.53z"/>
					<path id="&lt;Compound Path&gt;" fill-rule="evenodd" class="s4" d="m106.48 10.57q0.37-0.5 0.98-0.5 0.61 0 0.98 0.5 0.38 0.49 0.38 1.33 0 0.85-0.38 1.34-0.37 0.5-0.98 0.5-0.61 0-0.98-0.5-0.37-0.49-0.37-1.34 0-0.84 0.37-1.33zm0.4 2.29q0.21 0.33 0.58 0.33 0.37 0 0.59-0.33 0.21-0.34 0.21-0.96 0-0.61-0.21-0.95-0.22-0.34-0.59-0.34-0.37 0-0.58 0.34-0.22 0.34-0.22 0.95 0 0.62 0.22 0.96z"/>
					<path id="&lt;Compound Path&gt;" class="s4" d="m111.25 10.07v0.57q-0.6 0-0.95 0.41-0.34 0.4-0.34 1.06v1.56h-0.55v-3.53h0.52l0.01 0.68h0.01q0.5-0.75 1.3-0.75z"/>
					<path id="&lt;Compound Path&gt;" class="s4" d="m112.11 9.32v-0.74h0.57v0.74zm0 4.35v-3.53h0.58v3.53z"/>
					<path id="&lt;Compound Path&gt;" class="s4" d="m115.7 8.71l0.7 4.15h0.01l0.7-4.15h0.76l0.7 4.15h0.01l0.69-4.15h0.59l-0.95 4.96h-0.73l-0.7-4.14h-0.01l-0.7 4.14h-0.73l-0.94-4.96z"/>
					<path id="&lt;Compound Path&gt;" fill-rule="evenodd" class="s4" d="m120.34 12.72q0-0.59 0.4-0.95 0.4-0.35 1.14-0.35h0.27v-0.04q0-0.43-0.13-0.6-0.14-0.17-0.49-0.17-0.51 0-0.95 0.31l-0.08-0.54q0.46-0.31 1.03-0.31 0.61 0 0.89 0.31 0.28 0.31 0.28 0.98v1.36q0 0.48 0.08 0.95h-0.52q-0.04-0.3-0.05-0.54h-0.01q-0.15 0.28-0.42 0.45-0.26 0.16-0.6 0.16-0.38 0-0.61-0.27-0.23-0.28-0.23-0.75zm1.81-0.8h-0.27q-0.48 0-0.75 0.21-0.26 0.21-0.26 0.56 0 0.25 0.12 0.39 0.12 0.15 0.33 0.15 0.34 0 0.59-0.3 0.24-0.29 0.24-0.72z"/>
					<path id="&lt;Compound Path&gt;" class="s4" d="m124.51 10.27h1.02v0.55h-1.02v1.63q0 0.44 0.1 0.59 0.09 0.15 0.33 0.15 0.27 0 0.48-0.12l0.09 0.53q-0.31 0.14-0.65 0.14-0.48 0-0.69-0.27-0.21-0.26-0.21-0.89v-1.76h-0.59v-0.55h0.59v-1.29h0.55z"/>
					<path id="&lt;Compound Path&gt;" fill-rule="evenodd" class="s4" d="m126.18 12.72q0-0.59 0.39-0.95 0.4-0.35 1.15-0.35h0.27v-0.04q0-0.43-0.14-0.6-0.14-0.17-0.48-0.17-0.52 0-0.95 0.31l-0.08-0.54q0.45-0.31 1.03-0.31 0.61 0 0.89 0.31 0.27 0.31 0.27 0.98v1.36q0 0.48 0.08 0.95h-0.51q-0.04-0.3-0.05-0.54h-0.01q-0.15 0.28-0.42 0.45-0.27 0.16-0.6 0.16-0.39 0-0.62-0.27-0.22-0.28-0.22-0.75zm1.81-0.8h-0.27q-0.49 0-0.75 0.21-0.26 0.21-0.26 0.56 0 0.25 0.12 0.39 0.12 0.15 0.32 0.15 0.34 0 0.59-0.3 0.25-0.29 0.25-0.72z"/>
					<path id="&lt;Compound Path&gt;" class="s4" d="m129.85 10.14l0.01 0.51h0.01q0.18-0.27 0.42-0.43 0.24-0.15 0.51-0.15 0.92 0 0.92 1.56v2.04h-0.53v-1.97q0-0.62-0.13-0.84-0.13-0.23-0.45-0.23-0.28 0-0.5 0.34-0.23 0.34-0.23 0.8v1.9h-0.54v-3.53z"/>
					<path id="&lt;Compound Path&gt;" fill-rule="evenodd" class="s4" d="m132.34 12.72q0-0.59 0.4-0.95 0.39-0.35 1.14-0.35h0.27v-0.04q0-0.43-0.14-0.6-0.14-0.17-0.48-0.17-0.52 0-0.95 0.31l-0.08-0.54q0.45-0.31 1.03-0.31 0.61 0 0.89 0.31 0.27 0.31 0.27 0.98v1.36q0 0.48 0.08 0.95h-0.51q-0.04-0.3-0.05-0.54h-0.01q-0.15 0.28-0.42 0.45-0.27 0.16-0.6 0.16-0.39 0-0.62-0.27-0.22-0.28-0.22-0.75zm1.81-0.8h-0.27q-0.49 0-0.75 0.21-0.26 0.21-0.26 0.56 0 0.25 0.12 0.39 0.12 0.15 0.32 0.15 0.34 0 0.59-0.3 0.25-0.29 0.25-0.72z"/>
					<path id="&lt;Compound Path&gt;" class="s4" d="m135.89 10.14l0.75 3.12h0.01l0.75-3.12h0.59l-0.98 3.53h-0.75l-0.98-3.53z"/>
					<path id="&lt;Compound Path&gt;" fill-rule="evenodd" class="s4" d="m138.91 12.18q0.02 0.47 0.27 0.75 0.24 0.28 0.62 0.28 0.4 0 0.81-0.26l0.13 0.52q-0.47 0.27-1 0.27-0.6 0-0.99-0.5-0.39-0.5-0.39-1.34 0-0.85 0.36-1.34 0.36-0.49 0.97-0.49 0.6 0 0.94 0.46 0.33 0.46 0.33 1.34 0 0.1-0.01 0.31zm0-0.53h1.52q0-0.51-0.2-0.78-0.2-0.27-0.55-0.27-0.34 0-0.55 0.28-0.21 0.27-0.22 0.77z"/>
					<path id="&lt;Compound Path&gt;" class="s4" d="m91.92 16.18v4.1h1.71v0.59h-2.3v-4.69z"/>
					<path id="&lt;Compound Path&gt;" fill-rule="evenodd" class="s4" d="m94.16 19.97q0-0.56 0.38-0.89 0.37-0.34 1.08-0.34h0.26v-0.03q0-0.41-0.13-0.57-0.14-0.16-0.46-0.16-0.49 0-0.9 0.29l-0.07-0.51q0.43-0.29 0.97-0.29 0.58 0 0.84 0.29 0.26 0.29 0.26 0.93v1.28q0 0.46 0.07 0.9h-0.48q-0.04-0.28-0.05-0.51h-0.01q-0.14 0.27-0.39 0.42-0.26 0.15-0.58 0.15-0.36 0-0.57-0.25-0.22-0.26-0.22-0.71zm1.72-0.76h-0.26q-0.46 0-0.71 0.2-0.25 0.2-0.25 0.53 0 0.24 0.12 0.37 0.11 0.14 0.3 0.14 0.33 0 0.56-0.28 0.24-0.28 0.24-0.68z"/>
					<path id="&lt;Compound Path&gt;" fill-rule="evenodd" class="s4" d="m97.17 16.06h0.52v1.92h0.01q0.29-0.51 0.81-0.51 0.5 0 0.79 0.44 0.28 0.44 0.28 1.29 0 0.84-0.29 1.29-0.3 0.44-0.78 0.44-0.54 0-0.83-0.54h-0.01l-0.01 0.48h-0.49zm1.91 3.14q0-0.61-0.19-0.91-0.18-0.31-0.51-0.31-0.3 0-0.5 0.32-0.19 0.32-0.19 0.87v0.06q0 0.56 0.19 0.88 0.2 0.31 0.5 0.31 0.31 0 0.51-0.31 0.19-0.32 0.19-0.91z"/>
					<path id="&lt;Compound Path&gt;" fill-rule="evenodd" class="s4" d="m100.33 17.94q0.35-0.47 0.93-0.47 0.58 0 0.93 0.47 0.35 0.46 0.35 1.26 0 0.8-0.35 1.26-0.35 0.47-0.93 0.47-0.58 0-0.93-0.47-0.35-0.46-0.35-1.26 0-0.8 0.35-1.26zm0.38 2.16q0.2 0.32 0.55 0.32 0.35 0 0.56-0.32 0.2-0.32 0.2-0.9 0-0.58-0.2-0.9-0.21-0.32-0.56-0.32-0.35 0-0.55 0.32-0.2 0.32-0.2 0.9 0 0.58 0.2 0.9z"/>
					<path id="&lt;Compound Path&gt;" class="s4" d="m104.84 17.47v0.54q-0.56 0-0.89 0.38-0.33 0.38-0.33 1v1.48h-0.52v-3.34h0.5l0.01 0.64h0.01q0.47-0.7 1.22-0.7z"/>
					<path id="&lt;Compound Path&gt;" fill-rule="evenodd" class="s4" d="m105.34 19.97q0.01-0.56 0.38-0.89 0.38-0.34 1.08-0.34h0.26v-0.03q0-0.41-0.13-0.57-0.13-0.16-0.46-0.16-0.49 0-0.9 0.29l-0.07-0.51q0.43-0.29 0.97-0.29 0.58 0 0.84 0.29 0.26 0.29 0.26 0.93v1.28q0 0.46 0.08 0.9h-0.49q-0.04-0.28-0.05-0.51h-0.01q-0.14 0.27-0.39 0.42-0.26 0.15-0.57 0.15-0.37 0-0.58-0.25-0.21-0.26-0.22-0.71zm1.72-0.76h-0.26q-0.46 0-0.71 0.2-0.24 0.2-0.24 0.53 0 0.24 0.11 0.37 0.12 0.14 0.31 0.14 0.32 0 0.55-0.28 0.24-0.28 0.24-0.68z"/>
					<path id="&lt;Compound Path&gt;" class="s4" d="m109.29 17.66h0.96v0.51h-0.96v1.54q0 0.42 0.09 0.57 0.08 0.14 0.31 0.14 0.25 0 0.46-0.12l0.08 0.5q-0.3 0.13-0.62 0.13-0.45 0-0.65-0.25-0.19-0.25-0.19-0.84v-1.67h-0.57v-0.51h0.57v-1.22h0.52z"/>
					<path id="&lt;Compound Path&gt;" fill-rule="evenodd" class="s4" d="m111.16 17.94q0.35-0.47 0.93-0.47 0.58 0 0.93 0.47 0.35 0.46 0.35 1.26 0 0.8-0.35 1.26-0.35 0.47-0.93 0.47-0.58 0-0.93-0.47-0.35-0.46-0.35-1.26 0-0.8 0.35-1.26zm0.37 2.16q0.21 0.32 0.56 0.32 0.35 0 0.55-0.32 0.2-0.32 0.2-0.9 0-0.58-0.2-0.9-0.2-0.32-0.55-0.32-0.35 0-0.56 0.32-0.2 0.32-0.2 0.9 0 0.58 0.2 0.9z"/>
					<path id="&lt;Compound Path&gt;" class="s4" d="m115.66 17.47v0.54q-0.56 0-0.89 0.38-0.32 0.38-0.32 1v1.48h-0.53v-3.34h0.5l0.01 0.64h0.01q0.47-0.7 1.22-0.7z"/>
					<path id="&lt;Compound Path&gt;" class="s4" d="m117.34 20.1h0.01l0.76-2.57h0.54l-1.53 4.75h-0.55l0.49-1.41-0.97-3.34h0.57z"/>
				</g>
				<g id="&lt;Group&gt;">
					<path id="&lt;Compound Path&gt;" fill-rule="evenodd" class="s4" d="m91.82 25.59q-0.3-0.32-0.65-0.62l0.16-0.22q0.38 0.32 0.66 0.62zm0.26 0.5q-0.21 0.74-0.58 1.33l-0.23-0.17q0.36-0.58 0.57-1.28zm-0.76-2.03l0.17-0.22q0.33 0.29 0.59 0.57l-0.17 0.22q-0.25-0.27-0.59-0.57zm1.95-0.01v-0.36h0.29v0.36h1.02v0.27h-0.36v0.35h0.36v0.26h-0.36v0.67h-1.4v-0.67h-0.32v0.43q0 1.18-0.33 2.05l-0.26-0.15q0.17-0.42 0.25-0.91 0.07-0.49 0.07-1.18v-1.12zm-0.69 2.03v-0.26h1.84v0.26q-0.24 0.45-0.66 0.77 0.37 0.2 0.85 0.31l-0.06 0.27q-0.6-0.15-1.04-0.42-0.45 0.27-1.06 0.42l-0.07-0.27q0.52-0.12 0.88-0.31-0.32-0.24-0.53-0.58l0.22-0.15q0.22 0.34 0.56 0.58 0.36-0.25 0.61-0.62zm0.25-1.41v-0.35h-0.32v0.35zm0.26 0h0.87v-0.35h-0.87zm0 0.26v0.43h0.87v-0.43z"/>
					<path id="&lt;Compound Path&gt;" fill-rule="evenodd" class="s4" d="m95.25 25.78h0.74v0.84q0.09 0.19 0.23 0.3 0.14 0.1 0.41 0.14 0.26 0.05 0.73 0.05h1.17l-0.01 0.28h-1.17q-0.64 0-0.97-0.1-0.33-0.11-0.5-0.36-0.21 0.27-0.54 0.53l-0.13-0.27q0.3-0.23 0.51-0.48h-0.01v-0.66h-0.46zm0.79-1.43l-0.17 0.21q-0.23-0.23-0.58-0.53l0.18-0.21q0.28 0.25 0.57 0.53zm0 0.92l-0.17 0.21q-0.34-0.34-0.58-0.55l0.18-0.2q0.31 0.27 0.57 0.54zm0.14 1.19l-0.13-0.25q0.46-0.19 0.75-0.46l0.18 0.17q-0.11 0.11-0.25 0.21h1.18q-0.11-0.08-0.21-0.17h-0.66v-0.21h0.78q0.3 0.27 0.76 0.47l-0.12 0.24q-0.12-0.06-0.27-0.14v0.58h-1.73v-0.59q-0.12 0.08-0.28 0.15zm0.25-0.86v0.32h-0.27v-0.54h2.33v0.54h-0.26v-0.32zm-0.11-0.36v-1.3h0.78q0.04-0.1 0.08-0.27l0.28 0.03q-0.03 0.09-0.08 0.24h0.95v1.3zm0.28-0.89h1.45v-0.17h-1.45zm0 0.17v0.17h1.45v-0.17zm0 0.34v0.17h1.45v-0.17zm0.13 1.82h1.17v-0.35h-1.17z"/>
					<path id="&lt;Compound Path&gt;" fill-rule="evenodd" class="s4" d="m100.76 24.56h0.29v0.33h1.11v1.03h0.39v0.27h-1.43q0.13 0.31 0.48 0.56 0.35 0.26 0.89 0.4l-0.09 0.28q-0.51-0.13-0.9-0.42-0.39-0.29-0.58-0.64-0.19 0.35-0.59 0.64-0.4 0.29-0.91 0.42l-0.09-0.28q0.54-0.14 0.89-0.39 0.35-0.26 0.48-0.57h-1.43v-0.27h0.39v-1.03h1.1zm-1.45-0.48h0.74v-0.36h0.28v0.36h1.16v-0.36h0.28v0.36h0.74v0.28h-0.74v0.4h-0.28v-0.4h-1.16v0.4h-0.28v-0.4h-0.74zm1.45 1.07h-0.83v0.77h0.83q0-0.01 0-0.04 0-0.02 0-0.03zm0.29 0.7q0 0.01 0.01 0.04 0 0.02 0 0.03h0.82v-0.77h-0.83z"/>
					<path id="&lt;Compound Path&gt;" fill-rule="evenodd" class="s4" d="m103.33 24.87l-0.11-0.27q0.27-0.19 0.46-0.4 0.2-0.2 0.36-0.46l0.22 0.14q-0.09 0.14-0.14 0.21h1.08v-0.37h0.28v0.37h1.09v0.27h-1.09v0.32h0.99v1.21h-2.25v-0.96q-0.13 0.3-0.34 0.58v1.97h-0.28v-1.71q-0.18 0.24-0.34 0.38l-0.09-0.33q0.54-0.44 0.85-1.07l0.2 0.14v-0.21h0.98v-0.32h-1.1v-0.23q-0.3 0.41-0.77 0.74zm0.58 2.31q0.24-0.4 0.37-0.97l0.25 0.08q-0.14 0.6-0.41 1.05zm0.58-1.54h0.4v-0.72h-0.4zm1.64 1.08q0 0.2-0.01 0.3-0.01 0.1-0.05 0.19-0.03 0.1-0.07 0.14-0.04 0.03-0.14 0.06-0.1 0.03-0.21 0.03-0.1 0.01-0.3 0.01-0.18 0-0.27-0.01-0.09 0-0.18-0.02-0.09-0.03-0.12-0.06-0.04-0.02-0.07-0.1-0.02-0.07-0.03-0.15 0-0.08 0-0.23v-0.7h0.27c0 0.07 0 0.78 0 0.81q0 0.04 0.02 0.09 0.01 0.05 0.03 0.07 0.01 0.01 0.07 0.02 0.06 0.02 0.11 0.02 0.05 0 0.17 0 0.11 0 0.16 0 0.05 0 0.13-0.01 0.07-0.01 0.09-0.02 0.02 0 0.06-0.04 0.04-0.03 0.04-0.06 0.01-0.02 0.02-0.09 0.02-0.07 0.02-0.13 0-0.05 0-0.16zm-0.32-0.26l-0.16 0.21q-0.26-0.29-0.58-0.54l0.15-0.2q0.33 0.26 0.59 0.53zm-0.66-0.82h0.4v-0.73h-0.4zm1.06 0v-0.72h-0.41v0.72zm-0.21 0.65l0.24-0.12q0.25 0.51 0.43 1.06l-0.24 0.12q-0.17-0.55-0.43-1.06z"/>
					<path id="&lt;Compound Path&gt;" fill-rule="evenodd" class="s4" d="m107.29 24.2v-0.27h1.28v0.27h-0.6q-0.06 0.55-0.2 1h0.8v1.82h-0.78v0.35h-0.26v-1.59q-0.12 0.28-0.27 0.48l-0.09-0.35q0.42-0.64 0.54-1.71zm0.5 2.55h0.53v-1.27h-0.53zm1.3-1.44q0-0.2 0-0.67v-0.44h-0.38v-0.28h1.88v0.28h-0.38v1.11h0.42v0.27h-0.42v1.82h-0.28v-1.82h-0.58q-0.04 0.76-0.16 1.16-0.12 0.4-0.37 0.69l-0.2-0.24q0.21-0.25 0.31-0.59 0.11-0.34 0.15-1.02h-0.41v-0.27zm0.28 0h0.56v-1.11h-0.56v0.44q0 0.46 0 0.67z"/>
					<path id="&lt;Compound Path&gt;" class="s4" d="m114.04 27.11q0.09 0 0.13-0.01 0.04 0 0.09-0.02 0.04-0.03 0.06-0.06 0.01-0.03 0.03-0.12 0.02-0.1 0.03-0.19 0.01-0.1 0.02-0.3l0.26 0.04q-0.01 0.18-0.02 0.29-0.01 0.11-0.03 0.22-0.02 0.11-0.04 0.17-0.01 0.06-0.05 0.11-0.05 0.06-0.08 0.08-0.04 0.02-0.12 0.04-0.07 0.01-0.14 0.02-0.07 0-0.19 0-0.34 0-0.42-0.06-0.09-0.06-0.09-0.28v-0.96h-0.78q-0.1 0.51-0.42 0.84-0.31 0.33-0.89 0.54l-0.13-0.26q0.52-0.19 0.79-0.45 0.26-0.25 0.36-0.67h-0.91v-0.27h0.95q0.02-0.2 0.02-0.4h0.29q0 0.19-0.02 0.4h1.02v1.18q0 0.08 0.04 0.1 0.04 0.02 0.24 0.02zm-0.96-2.98h1.38v0.7h-0.27v-0.43h-0.79v0.73q0 0.09 0.02 0.11 0.02 0.02 0.13 0.02 0.12 0.01 0.19 0.01 0.06 0 0.18-0.01 0.17-0.01 0.21-0.05 0.03-0.04 0.05-0.25l0.27 0.03q-0.01 0.13-0.02 0.2 0 0.08-0.03 0.14-0.02 0.07-0.05 0.1-0.03 0.02-0.09 0.05-0.07 0.02-0.13 0.03-0.07 0-0.2 0.01-0.07 0-0.22 0-0.15 0-0.22 0-0.24-0.01-0.3-0.06-0.07-0.05-0.07-0.22v-0.84h-0.38q-0.01 0.42-0.33 0.73-0.32 0.31-0.94 0.46l-0.07-0.26q1.07-0.25 1.07-0.93h-0.79v0.55h-0.28v-0.82h1.39v-0.45h0.29z"/>
					<path id="&lt;Compound Path&gt;" fill-rule="evenodd" class="s0" d="m117.08 26.51v0.56h1.45v0.27h-3.2v-0.27h1.46v-0.56h-1.21v-0.27h1.21v-0.41h0.29v0.41h1.17v0.27zm0-2.46h1.44v0.97h-0.28v-0.71h-2.6v0.71h-0.28v-0.97h1.43v-0.37h0.29zm-1.31 0.83v-0.25h2.34v0.25h-0.33q0.35 0.43 0.64 0.85l-0.23 0.15q-0.02-0.03-0.09-0.13-0.07-0.09-0.11-0.15-1.36 0.18-2.47 0.21l-0.02-0.27q0.17 0 0.55-0.02 0.17-0.34 0.3-0.64zm2.05 0.49q-0.23-0.32-0.37-0.49h-0.8q-0.17 0.41-0.28 0.62 0.74-0.05 1.45-0.13z"/>
				</g>
			</g>
		</g>
		<g id="&lt;Group&gt;">
			<g id="&lt;Group&gt;">
			</g>
			<g id="&lt;Group&gt;">
				<g id="&lt;Group&gt;">
				</g>
				<g id="&lt;Group&gt;">
				</g>
			</g>
		</g>
	</g>
</svg>